<svg xmlns="http://www.w3.org/2000/svg" viewBox="0 0 275.698 122.36">
<path fill="#000000" d="M4.69923 64.7928 L4.69923 75.4857 L6.91896 75.4857 L12.7652 64.7928 L18.2041 64.7928 L10.8042 77.6312 L18.2041 89.5824 L12.7652 89.5824 L6.91896 80.0365 L4.69923 80.0365 L4.69923 89.5824 L.0742189 89.5824 L.0742189 64.7928 L4.69923 64.7928 Z"/>
<path fill="#000000" d="M25.4551 81.5169 L31.0792 81.5169 L28.2295 71.1571 L25.4551 81.5169 Z M18.3145 89.5824 L25.6397 64.7928 L30.6348 64.7928 L38.294 89.5824 L33.336 89.5824 L32.1885 85.4759 L24.3819 85.4759 L23.3096 89.5824 L18.3145 89.5824 Z"/>
<path fill="#000000" d="M52.798 89.5824 L40.255 89.5824 L40.255 64.7928 L45.0655 64.7928 L45.0655 84.7357 L52.798 84.7357 L52.798 89.5824 Z"/>
<path fill="#000000" d="M64.2677 89.5824 L59.4943 73.932 L59.4943 89.5824 L55.2394 89.5824 L55.2394 64.7928 L60.5304 64.7928 L66.5988 83.2552 L72.963 64.7928 L78.1798 64.7928 L78.1798 89.5824 L73.7023 89.5824 L73.7023 73.9691 L69.0773 89.5824 L64.2677 89.5824 Z"/>
<path fill="#000000" d="M87.2453 81.5169 L92.8693 81.5169 L90.0197 71.1571 L87.2453 81.5169 Z M80.1037 89.5824 L87.4299 64.7928 L92.425 64.7928 L100.084 89.5824 L95.1262 89.5824 L93.9787 85.4759 L86.172 85.4759 L85.0988 89.5824 L80.1037 89.5824 Z"/>
<path fill="#000000" d="M107.113 79.4076 L110.295 79.4076 C110.961 79.4076 111.59 79.2777 112.183 79.0189 C112.775 78.7601 113.292 78.4085 113.737 77.9642 C114.18 77.5208 114.531 77.0091 114.791 76.429 C115.05 75.8499 115.179 75.2269 115.179 74.5609 C115.179 73.8704 115.05 73.223 114.791 72.6185 C114.531 72.014 114.18 71.4901 113.737 71.0457 C113.292 70.6019 112.775 70.2567 112.183 70.0096 C111.59 69.7635 110.961 69.64 110.295 69.64 L107.113 69.64 L107.113 79.4076 Z M102.303 89.5824 L102.303 64.7928 L110.279 64.7928 C111.633 64.7928 112.9 65.0462 114.081 65.5511 C115.263 66.0569 116.29 66.7537 117.164 67.6419 C118.038 68.5296 118.728 69.5721 119.232 70.7684 C119.737 71.9652 119.989 73.2415 119.989 74.598 C119.989 76.2991 119.601 77.848 118.823 79.2415 C118.047 80.6351 116.992 81.763 115.66 82.6263 L120.174 89.5824 L114.714 89.5824 L111.172 84.2171 C111.024 84.2425 110.876 84.2542 110.729 84.2542 C110.581 84.2542 110.434 84.2542 110.286 84.2542 L107.113 84.2542 L107.113 89.5824 L102.303 89.5824 Z"/>
<path fill="#54aba7" d="M4.81007 112.111 L7.9922 112.111 C8.65822 112.111 9.29299 111.981 9.89748 111.722 C10.502 111.463 11.0259 111.112 11.4702 110.667 C11.9141 110.224 12.2656 109.712 12.5244 109.132 C12.7837 108.553 12.9131 107.93 12.9131 107.264 C12.9131 106.574 12.7837 105.926 12.5244 105.322 C12.2656 104.717 11.9141 104.193 11.4702 103.748 C11.0259 103.305 10.502 102.959 9.89748 102.712 C9.29299 102.466 8.65822 102.343 7.9922 102.343 L4.81007 102.343 L4.81007 112.111 Z M0 122.286 L0 97.4955 L7.97511 97.4955 C9.32912 97.4955 10.5967 97.7494 11.7783 98.2543 C12.96 98.7601 13.9937 99.4564 14.8799 100.345 C15.7657 101.233 16.461 102.275 16.9659 103.471 C17.4702 104.668 17.7232 105.945 17.7232 107.301 C17.7232 108.633 17.4702 109.885 16.9663 111.056 C16.4624 112.228 15.7671 113.252 14.8824 114.127 C13.9966 115.003 12.9634 115.694 11.7827 116.2 C10.6026 116.705 9.33547 116.957 7.98293 116.957 L4.81007 116.957 L4.81007 122.286 L0 122.286 Z"/>
<path fill="#54aba7" d="M21.0157 122.286 L21.0157 97.4955 L25.8252 97.4955 L25.8252 122.286 L21.0157 122.286 Z"/>
<path fill="#54aba7" d="M52.0577 117.106 C50.7999 118.758 49.338 120.036 47.6729 120.935 C46.0079 121.836 44.1768 122.286 42.1788 122.286 C40.4512 122.286 38.836 121.965 37.3311 121.324 C35.8262 120.683 34.5167 119.807 33.4024 118.697 C32.2872 117.586 31.4053 116.28 30.7569 114.775 C30.1075 113.271 29.7833 111.655 29.7833 109.928 C29.7833 108.202 30.1075 106.579 30.7569 105.062 C31.4053 103.545 32.2872 102.226 33.4024 101.103 C34.5167 99.9808 35.8262 99.099 37.3311 98.4574 C38.836 97.8168 40.4512 97.4955 42.1788 97.4955 C44.3487 97.4955 46.2794 97.973 47.9688 98.9281 C49.6583 99.8832 51.0587 101.194 52.1681 102.861 L48.9493 106.117 C48.086 104.834 47.087 103.884 45.9522 103.268 C44.8175 102.652 43.5597 102.343 42.1788 102.343 C41.1173 102.343 40.1251 102.541 39.2003 102.937 C38.2745 103.332 37.4727 103.87 36.795 104.55 C36.1163 105.23 35.5801 106.028 35.1856 106.943 C34.7911 107.857 34.5938 108.846 34.5938 109.91 C34.5938 110.973 34.7911 111.962 35.1856 112.876 C35.5801 113.791 36.1163 114.589 36.795 115.269 C37.4727 115.949 38.2745 116.481 39.2003 116.864 C40.1251 117.247 41.1173 117.439 42.1788 117.439 C43.4366 117.439 44.6016 117.162 45.6749 116.606 C46.7481 116.051 47.8028 115.158 48.839 113.924 L52.0577 117.106 Z"/>
<path fill="#54aba7" d="M59.3468 97.4955 L59.3468 108.189 L61.5665 108.189 L67.4122 97.4955 L72.8517 97.4955 L65.4513 110.334 L72.8517 122.286 L67.4122 122.286 L61.5665 112.74 L59.3468 112.74 L59.3468 122.286 L54.7218 122.286 L54.7218 97.4955 L59.3468 97.4955 Z"/>
<path fill="#54aba7" d="M86.9113 122.286 L74.3683 122.286 L74.3683 97.4955 L79.1789 97.4955 L79.1789 117.439 L86.9113 117.439 L86.9113 122.286 Z"/>
<path fill="#54aba7" d="M104.486 122.286 L89.3527 122.286 L89.3527 97.4955 L104.486 97.4955 L104.486 102.343 L94.1633 102.343 L94.1633 108.855 L102.636 108.855 L102.636 113.627 L94.1633 113.627 L94.1633 117.439 L104.486 117.439 L104.486 122.286 Z"/>
<path fill="#54aba7" d="M116.733 102.749 C116.733 102.38 116.615 102.065 116.381 101.806 C116.147 101.547 115.821 101.417 115.401 101.417 L112.404 101.417 L112.404 104.044 L115.475 104.044 C115.869 104.044 116.178 103.915 116.4 103.657 C116.622 103.397 116.733 103.095 116.733 102.749 Z M112.367 107.634 L112.367 117.439 L115.549 117.439 C116.215 117.439 116.844 117.316 117.436 117.069 C118.028 116.823 118.546 116.483 118.989 116.051 C119.434 115.62 119.785 115.108 120.044 114.516 C120.304 113.924 120.433 113.283 120.433 112.592 C120.433 111.926 120.327 111.291 120.118 110.686 C119.908 110.082 119.582 109.552 119.138 109.095 C118.694 108.639 118.145 108.282 117.491 108.022 C116.837 107.763 116.067 107.634 115.179 107.634 L112.367 107.634 Z M120.655 102.083 C120.655 102.799 120.494 103.404 120.174 103.897 C119.853 104.39 119.409 104.773 118.842 105.043 C119.976 105.242 120.951 105.605 121.765 106.135 C122.579 106.666 123.245 107.288 123.763 108.003 C124.281 108.719 124.663 109.478 124.91 110.28 C125.156 111.081 125.28 111.852 125.28 112.592 C125.28 113.949 125.027 115.219 124.522 116.403 C124.016 117.586 123.324 118.611 122.449 119.474 C121.573 120.337 120.544 121.022 119.36 121.528 C118.176 122.034 116.905 122.286 115.549 122.286 L107.557 122.286 L107.557 97.4955 L115.549 97.4955 C116.264 97.4955 116.937 97.6068 117.566 97.8285 C118.195 98.0511 118.737 98.3597 119.194 98.7533 C119.65 99.1488 120.007 99.6293 120.267 100.197 C120.526 100.764 120.655 101.394 120.655 102.083 Z"/>
<path fill="#54aba7" d="M134.234 114.22 L139.858 114.22 L137.008 103.86 L134.234 114.22 Z M127.092 122.286 L134.418 97.4955 L139.413 97.4955 L147.073 122.286 L142.115 122.286 L140.967 118.179 L133.16 118.179 L132.087 122.286 L127.092 122.286 Z"/>
<path fill="#54aba7" d="M161.576 122.286 L149.033 122.286 L149.033 97.4955 L153.844 97.4955 L153.844 117.439 L161.576 117.439 L161.576 122.286 Z"/>
<path fill="#54aba7" d="M176.561 122.286 L164.018 122.286 L164.018 97.4955 L168.828 97.4955 L168.828 117.439 L176.561 117.439 L176.561 122.286 Z"/>
<path fill="#000000" d="M183.406 97.4955 L183.406 108.189 L185.625 108.189 L191.471 97.4955 L196.911 97.4955 L189.51 110.334 L196.911 122.286 L191.471 122.286 L185.625 112.74 L183.406 112.74 L183.406 122.286 L178.781 122.286 L178.781 97.4955 L183.406 97.4955 Z"/>
<path fill="#000000" d="M210.97 122.286 L198.427 122.286 L198.427 97.4955 L203.238 97.4955 L203.238 117.439 L210.97 117.439 L210.97 122.286 Z"/>
<path fill="#000000" d="M218.037 97.4955 L218.037 112.592 C218.037 113.258 218.166 113.893 218.425 114.497 C218.684 115.102 219.036 115.625 219.48 116.07 C219.923 116.514 220.442 116.866 221.034 117.124 C221.625 117.383 222.254 117.513 222.92 117.513 C223.784 117.513 224.531 117.34 225.16 116.995 C225.789 116.65 226.3 116.181 226.695 115.589 C227.089 114.996 227.379 114.319 227.564 113.554 C227.749 112.789 227.842 111.988 227.842 111.149 L227.842 97.4955 L232.652 97.4955 L232.652 112.592 C232.652 113.949 232.399 115.219 231.894 116.403 C231.39 117.586 230.694 118.622 229.808 119.511 C228.921 120.399 227.887 121.096 226.706 121.601 C225.524 122.107 224.256 122.36 222.902 122.36 C221.548 122.36 220.28 122.107 219.098 121.601 C217.916 121.096 216.894 120.399 216.033 119.511 C215.171 118.622 214.489 117.586 213.984 116.403 C213.479 115.219 213.227 113.949 213.227 112.592 L213.227 97.4955 L218.037 97.4955 Z"/>
<path fill="#000000" d="M244.676 102.749 C244.676 102.38 244.559 102.065 244.325 101.806 C244.09 101.547 243.764 101.417 243.344 101.417 L240.347 101.417 L240.347 104.044 L243.418 104.044 C243.813 104.044 244.122 103.915 244.343 103.657 C244.566 103.397 244.676 103.095 244.676 102.749 Z M240.311 107.634 L240.311 117.439 L243.493 117.439 C244.159 117.439 244.788 117.316 245.379 117.069 C245.971 116.823 246.49 116.483 246.933 116.051 C247.377 115.62 247.729 115.108 247.988 114.516 C248.248 113.924 248.376 113.283 248.376 112.592 C248.376 111.926 248.271 111.291 248.062 110.686 C247.852 110.082 247.526 109.552 247.082 109.095 C246.637 108.639 246.088 108.282 245.435 108.022 C244.781 107.763 244.01 107.634 243.123 107.634 L240.311 107.634 Z M248.598 102.083 C248.598 102.799 248.438 103.404 248.118 103.897 C247.796 104.39 247.353 104.773 246.786 105.043 C247.919 105.242 248.895 105.605 249.708 106.135 C250.523 106.666 251.189 107.288 251.707 108.003 C252.224 108.719 252.607 109.478 252.854 110.28 C253.1 111.081 253.223 111.852 253.223 112.592 C253.223 113.949 252.97 115.219 252.465 116.403 C251.959 117.586 251.268 118.611 250.393 119.474 C249.517 120.337 248.488 121.022 247.303 121.528 C246.12 122.034 244.849 122.286 243.493 122.286 L235.5 122.286 L235.5 97.4955 L243.493 97.4955 C244.207 97.4955 244.88 97.6068 245.509 97.8285 C246.138 98.0511 246.68 98.3597 247.137 98.7533 C247.593 99.1488 247.951 99.6293 248.21 100.197 C248.469 100.764 248.598 101.394 248.598 102.083 Z"/>
<path fill="#000000" d="M265.322 102.749 C265.322 102.38 265.205 102.065 264.97 101.806 C264.736 101.547 264.41 101.417 263.99 101.417 L260.993 101.417 L260.993 104.044 L264.064 104.044 C264.458 104.044 264.767 103.915 264.989 103.657 C265.211 103.397 265.322 103.095 265.322 102.749 Z M260.957 107.634 L260.957 117.439 L264.138 117.439 C264.804 117.439 265.433 117.316 266.025 117.069 C266.617 116.823 267.135 116.483 267.579 116.051 C268.023 115.62 268.375 115.108 268.633 114.516 C268.893 113.924 269.022 113.283 269.022 112.592 C269.022 111.926 268.917 111.291 268.708 110.686 C268.498 110.082 268.171 109.552 267.727 109.095 C267.283 108.639 266.734 108.282 266.081 108.022 C265.426 107.763 264.656 107.634 263.768 107.634 L260.957 107.634 Z M269.244 102.083 C269.244 102.799 269.084 103.404 268.763 103.897 C268.442 104.39 267.999 104.773 267.431 105.043 C268.565 105.242 269.541 105.605 270.354 106.135 C271.168 106.666 271.835 107.288 272.352 108.003 C272.87 108.719 273.252 109.478 273.5 110.28 C273.746 111.081 273.869 111.852 273.869 112.592 C273.869 113.949 273.616 115.219 273.111 116.403 C272.605 117.586 271.914 118.611 271.039 119.474 C270.163 120.337 269.133 121.022 267.949 121.528 C266.765 122.034 265.495 122.286 264.138 122.286 L256.146 122.286 L256.146 97.4955 L264.138 97.4955 C264.853 97.4955 265.526 97.6068 266.155 97.8285 C266.784 98.0511 267.326 98.3597 267.783 98.7533 C268.239 99.1488 268.596 99.6293 268.856 100.197 C269.115 100.764 269.244 101.394 269.244 102.083 Z"/>
<path fill="#54aba7" d="M34.7372 38.7278 L93.4984 37.8556 C95.4532 37.8549 95.5278 40.7913 93.5428 40.8556 C93.5273 40.8579 34.7637 39.9827 34.7371 39.9833 C33.9565 39.9732 33.9069 38.7426 34.7372 38.7278 L34.7372 38.7278 Z"/>
<path fill="#000000" d="M78.0263 31.2671 L139.071 30.3949 C139.9 30.383 140.581 31.045 140.593 31.8734 C140.604 32.7019 139.942 33.383 139.114 33.3949 C139.108 33.3974 78.0456 32.5216 78.0263 32.5226 C77.2468 32.513 77.1943 31.2815 78.0263 31.2671 L78.0263 31.2671 Z"/>
<path fill="#000000" d="M11.4296 31.2671 L58.8974 30.3949 C60.8561 30.3883 60.9343 33.3239 58.9524 33.3949 C58.9534 33.4013 11.4474 32.5194 11.4297 32.5226 C10.6445 32.5091 10.6078 31.2843 11.4296 31.2671 L11.4296 31.2671 Z"/>
<path fill="#54aba7" d="M256.459 76.8969 C255.612 78.2858 254.053 78.88 252.977 78.2238 C251.9 77.5677 251.713 75.9099 252.56 74.5208 C253.406 73.1318 254.965 72.5377 256.042 73.1938 C257.119 73.8499 257.305 75.5078 256.459 76.8969 Z M247.436 72.8486 C245.585 72.8486 244.085 71.3484 244.085 69.4977 C244.085 67.647 245.585 66.1467 247.436 66.1467 C249.287 66.1467 250.787 67.647 250.787 69.4977 C250.787 71.3484 249.287 72.8486 247.436 72.8486 Z M246.235 87.1207 C244.846 87.9671 243.188 87.7804 242.532 86.7037 C241.876 85.627 242.47 84.0679 243.859 83.2215 C245.248 82.3751 246.906 82.5618 247.562 83.6385 C248.218 84.7152 247.624 86.2742 246.235 87.1207 Z M238.836 64.2486 C236.985 64.2486 235.485 62.7484 235.485 60.8976 C235.485 59.0469 236.985 57.5467 238.836 57.5467 C240.687 57.5467 242.187 59.0469 242.187 60.8976 C242.187 62.7484 240.687 64.2486 238.836 64.2486 Z M238.836 81.4487 C236.985 81.4487 235.485 79.9484 235.485 78.0977 C235.485 76.247 236.985 74.7468 238.836 74.7468 C240.687 74.7468 242.187 76.247 242.187 78.0977 C242.187 79.9484 240.687 81.4487 238.836 81.4487 Z M233.813 55.7738 C232.424 56.6202 230.766 56.4336 230.11 55.3569 C229.454 54.2802 230.048 52.7211 231.437 51.8747 C232.826 51.0283 234.484 51.215 235.14 52.2917 C235.796 53.3684 235.202 54.9274 233.813 55.7738 Z M235.14 86.7037 C234.484 87.7804 232.826 87.9671 231.437 87.1207 C230.048 86.2742 229.454 84.7152 230.11 83.6385 C230.766 82.5618 232.424 82.3751 233.813 83.2215 C235.202 84.0679 235.796 85.627 235.14 86.7037 Z M226.885 69.4977 C226.885 67.647 228.385 66.1467 230.236 66.1467 C232.087 66.1467 233.587 67.647 233.587 69.4977 C233.587 71.3484 232.087 72.8486 230.236 72.8486 C228.385 72.8486 226.885 71.3484 226.885 69.4977 Z M225.112 64.4746 C224.266 65.8635 222.707 66.4577 221.63 65.8016 C220.553 65.1455 220.367 63.4876 221.213 62.0985 C222.059 60.7095 223.618 60.1154 224.695 60.7715 C225.772 61.4276 225.958 63.0855 225.112 64.4746 Z M224.695 78.2238 C223.618 78.88 222.059 78.2858 221.213 76.8969 C220.367 75.5078 220.553 73.8499 221.63 73.1938 C222.707 72.5377 224.266 73.1318 225.112 74.5208 C225.958 75.9099 225.772 77.5677 224.695 78.2238 Z M242.532 52.2917 C243.188 51.215 244.846 51.0283 246.235 51.8747 C247.624 52.7211 248.218 54.2802 247.562 55.3569 C246.906 56.4336 245.248 56.6202 243.859 55.7738 C242.47 54.9274 241.876 53.3684 242.532 52.2917 Z M252.977 60.7715 C254.053 60.1154 255.612 60.7095 256.459 62.0985 C257.305 63.4876 257.119 65.1455 256.042 65.8016 C254.965 66.4577 253.406 65.8635 252.56 64.4746 C251.713 63.0855 251.9 61.4276 252.977 60.7715 Z M238.836 48.5766 C227.281 48.5766 217.915 57.9433 217.915 69.4977 C217.915 81.0521 227.281 90.4188 238.836 90.4188 C250.39 90.4188 259.757 81.0521 259.757 69.4977 C259.757 57.9433 250.39 48.5766 238.836 48.5766 Z"/>
<path fill="#000000" d="M233.813 55.7739 C234.921 55.0983 235.521 53.9693 235.386 52.9934 C235.158 53.6522 234.653 54.2869 233.929 54.7279 C232.54 55.5743 230.882 55.3876 230.226 54.3109 C230.093 54.0936 230.014 53.8561 229.98 53.6093 C229.771 54.215 229.795 54.8412 230.11 55.3569 C230.766 56.4336 232.424 56.6203 233.813 55.7739 Z"/>
<path fill="#000000" d="M221.63 65.8016 C222.707 66.4577 224.266 65.8636 225.112 64.4745 C225.506 63.8286 225.673 63.1254 225.634 62.4909 C225.546 62.8075 225.414 63.1245 225.228 63.4286 C224.382 64.8176 222.823 65.4118 221.746 64.7556 C221.17 64.4047 220.852 63.7661 220.807 63.0362 C220.494 64.1655 220.789 65.2891 221.63 65.8016 Z"/>
<path fill="#000000" d="M243.859 55.7739 C245.248 56.6203 246.906 56.4336 247.562 55.3569 C247.799 54.9684 247.87 54.5171 247.803 54.0592 C247.768 54.1453 247.728 54.2298 247.678 54.3109 C247.022 55.3876 245.364 55.5743 243.975 54.7279 C243.087 54.1869 242.526 53.3547 242.407 52.5434 C241.972 53.6 242.575 54.9912 243.859 55.7739 Z"/>
<path fill="#000000" d="M238.952 63.2027 C237.154 63.2027 235.687 61.7863 235.605 60.0085 C235.527 60.2918 235.485 60.5897 235.485 60.8977 C235.485 62.7484 236.985 64.2486 238.836 64.2486 C240.687 64.2486 242.187 62.7484 242.187 60.8977 C242.187 60.8451 242.185 60.7929 242.183 60.7409 C241.793 62.1598 240.495 63.2027 238.952 63.2027 Z"/>
<path fill="#000000" d="M256.042 65.8016 C256.722 65.3872 257.046 64.573 256.98 63.6795 C256.832 64.1323 256.557 64.5128 256.158 64.7556 C255.081 65.4118 253.522 64.8176 252.676 63.4286 C252.364 62.9169 252.194 62.3688 252.155 61.8476 C251.904 62.6184 252.027 63.5996 252.56 64.4745 C253.406 65.8636 254.965 66.4577 256.042 65.8016 Z"/>
<path fill="#000000" d="M224.811 77.1779 C223.735 77.834 222.176 77.2399 221.329 75.8509 C221.017 75.3391 220.847 74.7911 220.808 74.27 C220.557 75.0407 220.68 76.0219 221.213 76.8969 C222.059 78.2858 223.618 78.88 224.695 78.2239 C225.375 77.8095 225.699 76.9953 225.633 76.1018 C225.486 76.5546 225.21 76.9351 224.811 77.1779 Z"/>
<path fill="#000000" d="M247.552 71.8027 C245.754 71.8027 244.287 70.3864 244.205 68.6085 C244.127 68.8918 244.085 69.1897 244.085 69.4977 C244.085 71.3484 245.585 72.8487 247.436 72.8487 C249.287 72.8487 250.787 71.3484 250.787 69.4977 C250.787 69.4451 250.785 69.3929 250.783 69.3409 C250.393 70.7598 249.095 71.8027 247.552 71.8027 Z"/>
<path fill="#000000" d="M256.575 75.8509 C255.729 77.2399 254.17 77.834 253.093 77.1779 C252.517 76.8269 252.198 76.1884 252.154 75.4585 C251.841 76.5878 252.136 77.7114 252.977 78.2239 C254.053 78.88 255.612 78.2858 256.459 76.8969 C256.853 76.2509 257.02 75.5477 256.981 74.9132 C256.893 75.2298 256.76 75.5468 256.575 75.8509 Z"/>
<path fill="#000000" d="M246.351 86.0747 C244.962 86.9212 243.304 86.7344 242.648 85.6577 C242.516 85.4404 242.437 85.2029 242.402 84.9561 C242.193 85.5618 242.218 86.188 242.532 86.7037 C243.188 87.7804 244.846 87.9671 246.235 87.1207 C247.344 86.4451 247.944 85.3161 247.808 84.3401 C247.58 84.9991 247.075 85.6337 246.351 86.0747 Z"/>
<path fill="#000000" d="M233.587 69.4977 C233.587 69.4451 233.585 69.3929 233.583 69.3409 C233.193 70.7598 231.895 71.8027 230.352 71.8027 C228.554 71.8027 227.087 70.3864 227.005 68.6085 C226.927 68.8918 226.885 69.1897 226.885 69.4977 C226.885 71.3484 228.385 72.8487 230.236 72.8487 C232.087 72.8487 233.587 71.3484 233.587 69.4977 Z"/>
<path fill="#000000" d="M238.952 80.4028 C237.154 80.4028 235.687 78.9864 235.605 77.2086 C235.527 77.4918 235.485 77.7897 235.485 78.0978 C235.485 79.9484 236.985 81.4487 238.836 81.4487 C240.687 81.4487 242.187 79.9484 242.187 78.0978 C242.187 78.0452 242.185 77.9929 242.183 77.941 C241.793 79.3599 240.495 80.4028 238.952 80.4028 Z"/>
<path fill="#000000" d="M235.256 85.6577 C234.6 86.7344 232.942 86.9212 231.553 86.0747 C230.665 85.5337 230.104 84.7016 229.985 83.8903 C229.55 84.9468 230.152 86.338 231.437 87.1207 C232.826 87.9671 234.484 87.7804 235.14 86.7037 C235.376 86.3152 235.448 85.8639 235.381 85.406 C235.345 85.4921 235.305 85.5766 235.256 85.6577 Z"/>
<path fill="#000000" d="M219.404 83.7399 L204.074 86.1307 C189.744 88.3655 178.93 82.7827 167.921 67.4606 C167.893 67.4219 167.863 67.3845 167.831 67.3489 C164.492 63.6296 160.679 62.3905 156.923 62.1848 C154.049 62.0273 151.208 62.475 148.64 62.8801 L123.99 66.7246 C124.344 67.5405 124.659 68.3836 124.928 69.2543 L148.406 65.5929 L149.052 65.4914 C154.601 64.6168 160.889 63.6256 165.817 69.0631 C175.211 82.1168 184.884 88.5573 196.412 89.1882 C199.002 89.3301 201.687 89.1784 204.482 88.7431 L221.39 86.1061 C220.68 85.3605 220.015 84.5716 219.404 83.7399 Z"/>
<path fill="#54aba7" d="M100.841 23.8062 C99.9885 23.8319 100.072 25.0497 100.841 25.0617 C100.847 25.0608 149.733 25.6604 166.595 25.8659 C167.012 24.872 167.44 23.9123 167.878 22.9869 L100.841 23.8062 Z"/>
<path fill="#000000" d="M275.386 51.7348 L270.701 21.6953 C269.646 14.9285 266.018 8.97743 260.487 4.93861 C254.956 .899485 248.184 -.743521 241.416 .311899 L191.895 8.03486 C178.728 10.0881 170.384 16.4183 164.22 29.4226 C163.782 30.348 163.354 31.3077 162.937 32.3016 C162.514 33.3076 162.102 34.3483 161.699 35.4263 C161.688 35.4556 161.678 35.4852 161.669 35.5152 C158.653 45.7408 151.169 47.3104 144.892 48.4902 C144.892 48.4902 133.316 51.3239 109.801 51.7534 C86.48 51.8062 78.0296 51.9449 53.8683 51.9996 C53.2758 51.9983 52.7993 52.4776 52.798 53.07 C52.7966 53.6625 53.2758 54.1439 53.8683 54.1453 C53.8683 54.1453 73.5714 54.3095 73.5714 54.3096 C80.3238 54.2446 108.419 54.3681 114.479 54.2892 C130.441 54.0812 144.048 51.2952 144.048 51.2952 C150.325 50.256 160.693 48.102 164.191 36.3089 C164.715 34.9107 165.257 33.6034 165.81 32.3366 C166.258 31.3112 166.717 30.3287 167.187 29.3863 C172.891 17.9537 180.363 12.509 192.303 10.6469 L241.823 2.92396 C247.892 1.97865 253.967 3.45149 258.928 7.07368 C263.889 10.6959 267.142 16.0334 268.089 22.1028 L272.774 52.1423 C273.72 58.2116 272.246 64.2863 268.624 69.2471 C266.87 71.6502 264.703 73.636 262.253 75.1656 C261.948 76.4335 261.547 77.6643 261.049 78.8452 C264.866 77.0402 268.2 74.3115 270.759 70.8062 C274.798 65.2748 276.441 58.5019 275.386 51.7348 Z"/>
<path fill="#000000" d="M.0757322 48.6264 L4.64512 48.6264 L4.64511 50.0893 L1.75495 50.0893 L1.75495 52.0327 L4.05771 52.0327 L4.05771 53.4956 L1.75495 53.4956 L1.75495 55.5591 L4.64511 55.5591 L4.64511 57.0219 L.0757294 57.0219 L.0757322 48.6264 Z"/>
<path fill="#000000" d="M5.85997 55.2114 L5.85997 55.0307 L7.40686 55.0307 L7.40686 55.2231 C7.40686 55.6303 7.65882 55.8706 8.12659 55.8706 C8.52259 55.8706 8.8224 55.6909 8.8224 55.271 C8.8224 54.8393 8.34242 54.7309 7.68274 54.5874 C6.81945 54.395 5.94396 53.9995 5.94396 52.7046 C5.94396 51.5405 6.68762 50.7856 8.1266 50.7856 C9.44595 50.7856 10.2975 51.4927 10.2975 52.5962 L10.2975 52.7407 L8.77455 52.7407 L8.77455 52.5962 C8.77455 52.2602 8.58265 52.0571 8.1388 52.0571 C7.81507 52.0571 7.51477 52.2124 7.51477 52.5962 C7.51477 53.0405 7.95862 53.1596 8.70228 53.3403 C9.56606 53.5561 10.4294 53.8921 10.4294 55.1274 C10.4294 56.3501 9.67397 57.1421 8.19886 57.1421 C6.71154 57.1421 5.85997 56.3979 5.85997 55.2114 Z"/>
<path fill="#000000" d="M13.9592 52.2251 L13.9592 55.0307 C13.9592 55.5112 14.1271 55.7026 14.5822 55.7026 C14.7385 55.7026 14.9299 55.6782 15.134 55.6186 L15.134 56.9858 C14.8586 57.0942 14.5822 57.1421 14.2463 57.1421 C12.9631 57.1421 12.34 56.518 12.34 55.2466 L12.34 52.2251 L11.464 52.2251 L11.464 50.9057 L12.3996 50.9057 L12.508 49.3462 L13.9592 49.3462 L13.9592 50.9057 L15.134 50.9057 L15.134 52.2251 L13.9592 52.2251 Z"/>
<path fill="#000000" d="M16.7073 55.3432 L18.387 55.3432 L18.387 57.022 L16.7072 57.0219 L16.7073 55.3432 Z"/>
<path fill="#000000" d="M22.6126 55.9184 C22.6126 54.8511 22.9837 54.0239 24.3987 52.9087 C25.5023 52.0444 25.9466 51.6128 25.9466 50.8452 C25.9466 50.2456 25.5989 49.9702 25.0833 49.9702 C24.555 49.9702 24.219 50.27 24.219 50.9175 L24.219 51.5893 L22.636 51.5893 L22.636 50.9057 C22.636 49.4419 23.4876 48.5063 25.1312 48.5063 C26.7738 48.5063 27.6253 49.4546 27.6253 50.7856 C27.6253 51.9731 26.9896 52.7407 25.3587 54.06 C24.4476 54.7915 24.2669 55.1147 24.2669 55.4985 L24.2669 55.5591 L27.4456 55.5591 L27.4456 57.022 L22.6126 57.022 L22.6126 55.9184 Z"/>
<path fill="#000000" d="M32.3656 54.7788 L32.3656 50.8696 C32.3656 50.3052 32.0658 49.9702 31.5014 49.9702 C30.9379 49.9702 30.6381 50.3052 30.6381 50.8696 L30.6381 54.7788 C30.6381 55.3432 30.9379 55.6782 31.5013 55.6782 C32.0658 55.6782 32.3656 55.3432 32.3656 54.7788 Z M28.9593 54.7192 L28.9593 50.9292 C28.9593 49.4057 29.8588 48.5063 31.5014 48.5063 C33.1449 48.5063 34.0443 49.4057 34.0443 50.9292 L34.0443 54.7192 C34.0443 56.2427 33.1449 57.1421 31.5013 57.1421 C29.8588 57.1421 28.9593 56.2427 28.9593 54.7192 Z"/>
<path fill="#000000" d="M35.4399 55.9184 C35.4399 54.8511 35.811 54.0239 37.226 52.9087 C38.3295 52.0444 38.7739 51.6128 38.7739 50.8452 C38.7739 50.2456 38.4262 49.9702 37.9096 49.9702 C37.3823 49.9702 37.0463 50.27 37.0463 50.9175 L37.0463 51.5893 L35.4633 51.5893 L35.4633 50.9057 C35.4633 49.4419 36.3149 48.5063 37.9585 48.5063 C39.601 48.5063 40.4526 49.4546 40.4526 50.7856 C40.4526 51.9731 39.8169 52.7407 38.186 54.06 C37.2748 54.7915 37.0942 55.1147 37.0942 55.4985 L37.0942 55.5591 L40.2729 55.5591 L40.2729 57.022 L35.4399 57.022 L35.4399 55.9184 Z"/>
<path fill="#000000" d="M41.7632 54.7436 L41.7632 54.2397 L43.3462 54.2397 L43.3462 54.7788 C43.3462 55.3911 43.646 55.6782 44.2222 55.6782 C44.7857 55.6782 45.0855 55.3667 45.0855 54.7788 L45.0855 53.4722 C45.0855 52.896 44.8335 52.5483 44.27 52.5483 C43.646 52.5483 43.3941 52.8843 43.3462 53.436 L41.7632 53.436 L42.0757 48.6265 L46.4888 48.6265 L46.4888 50.0893 L43.562 50.0893 L43.4302 51.7329 C43.73 51.3247 44.2222 51.0854 44.9058 51.0854 C46.1412 51.0854 46.7652 51.8765 46.7652 53.2798 L46.7652 54.7436 C46.7652 56.2905 45.9136 57.1421 44.27 57.1421 C42.6147 57.1421 41.7632 56.3022 41.7632 54.7436 Z"/>
</svg>
